<?xml version="1.0" encoding="UTF-8" standalone="no"?>
<!-- Created with Inkscape (http://www.inkscape.org/) -->

<svg
   width="508mm"
   height="182.82709mm"
   viewBox="0 0 1920.0001 691.00002"
   version="1.1"
   id="svg1"
   xml:space="preserve"
   inkscape:version="1.3.2 (091e20e, 2023-11-25, custom)"
   sodipodi:docname="ARKOVA-logo-WT.svg"
   xmlns:inkscape="http://www.inkscape.org/namespaces/inkscape"
   xmlns:sodipodi="http://sodipodi.sourceforge.net/DTD/sodipodi-0.dtd"
   xmlns="http://www.w3.org/2000/svg"
   xmlns:svg="http://www.w3.org/2000/svg"><sodipodi:namedview
     id="namedview1"
     pagecolor="#ffffff"
     bordercolor="#000000"
     borderopacity="0.25"
     inkscape:showpageshadow="2"
     inkscape:pageopacity="0.0"
     inkscape:pagecheckerboard="0"
     inkscape:deskcolor="#d1d1d1"
     inkscape:document-units="mm"
     inkscape:zoom="0.32063344"
     inkscape:cx="845.20191"
     inkscape:cy="569.18579"
     inkscape:window-width="1366"
     inkscape:window-height="705"
     inkscape:window-x="-8"
     inkscape:window-y="-8"
     inkscape:window-maximized="1"
     inkscape:current-layer="svg1" /><defs
     id="defs1" /><g
     id="g9"
     inkscape:label="LOGO"
     transform="translate(0.47040254,1.171803)"><path
       style="fill:#0070b1"
       d="m -0.47040254,652.8282 v -37 H 959.5296 h 960 v 37 37 h -960 -960.00000254 z"
       id="path12"
       inkscape:label="LINE" /><path
       style="fill:#ffffff"
       d="m 0.52959746,590.86186 c 0,-0.53149 18.44999954,-115.24734 40.99999954,-254.92411 22.55,-139.67677 41,-254.216916 41,-254.533658 0,-0.316742 -7.2,-0.575895 -16,-0.575895 h -16 v -41 -41 h 116.500003 116.5 v 296.500003 296.5 h -41 -41 v -59.64753 -59.64753 l -8.34903,0.64176 c -17.75329,1.36463 -38.29862,8.61972 -54.31244,19.17914 -11.28406,7.44065 -26.34953,22.49428 -33.75997,33.73346 -11.13453,16.88738 -18.09984,37.12153 -19.273985,55.9907 l -0.606699,9.75 H 42.878537 c -26.582554,0 -42.34893954,-0.35977 -42.34893954,-0.96634 z M 132.15478,403.50714 c 17.67854,-6.94634 38.68258,-11.51641 60.62482,-13.19078 l 8.75,-0.6677 V 235.23843 80.828197 h -17.42055 -17.42054 l -0.56123,2.75 c -0.91014,4.459608 -50.60168,324.629283 -50.59959,326.020323 10e-4,0.91752 1.04339,0.74595 3.75191,-0.61777 2.0625,-1.03846 7.85633,-3.50158 12.87518,-5.47361 z M 370.5296,336.3282 V 80.828197 h -19 -19 v -41 -41 H 478.3288 624.128 l -0.33687,3.25 c -0.18527,1.7875 -5.48326,61.3 -11.7733,132.250003 -12.21719,137.80663 -11.80112,134.42987 -19.03675,154.5 -3.21806,8.92623 -9.20018,21.06772 -14.56667,29.56495 -2.13664,3.38314 -3.88481,6.43878 -3.88481,6.7903 0,0.35152 1.94183,3.27693 4.31519,6.5009 8.46126,11.49381 15.81461,28.1339 19.72837,44.64385 1.07585,4.53838 6.45699,51.0539 12.43613,107.5 5.79683,54.725 10.81142,101.4125 11.14354,103.75 l 0.60386,4.25 h -41.56824 -41.56823 l -0.53694,-3.25 c -0.29531,-1.7875 -5.02997,-45.78586 -10.52146,-97.77413 -7.70648,-72.95782 -10.45103,-95.88755 -12.02923,-100.5 -3.84897,-11.24903 -10.97089,-19.23102 -19.90222,-22.30567 -2.16092,-0.74391 -10.81275,-1.1702 -23.75,-1.1702 H 452.5296 v 112.5 112.5 h -41 -41 z m 127.31493,-53.57051 c 8.01521,-2.22572 14.68496,-11.86749 19.27242,-27.86016 2.28525,-7.9668 3.32448,-18.09499 9.31349,-90.76837 3.70766,-44.99053 6.57019,-82.138463 6.36117,-82.550963 -0.20903,-0.4125 -18.35349,-0.75 -40.32103,-0.75 H 452.5296 v 101.500003 101.5 l 20.75,-0.006 c 11.52182,-0.003 22.44662,-0.47671 24.56493,-1.06493 z M 709.5296,336.3282 V 80.828197 h -18.5 -18.5 v -41 -41 h 59.5 59.5 v 87.5 87.500003 h 20.63398 c 23.52329,0 27.03361,-0.66759 32.55786,-6.19185 9.9259,-9.92589 11.88843,-18.08062 23.79703,-98.881391 5.50612,-37.359477 10.01113,-68.37642149 10.01113,-68.92654232 0,-0.65108307 14.66051,-1.00021968 42,-1.00021968 39.68848,0 42,0.098499 42,1.78972643 0,4.44297017 -23.22129,153.24372657 -25.00466,160.22849657 -5.1172,20.0421 -14.82731,41.21456 -24.58334,53.60289 -2.97948,3.78339 -5.69568,7.45826 -6.036,8.16639 -0.44691,0.92992 39.4085,262.32307 55.49613,363.97335 l 0.83261,5.26085 -41.53246,-0.26085 -41.53247,-0.26085 -25.78733,-166.5 c -14.18303,-91.575 -25.80198,-166.8375 -25.8199,-167.25 -0.0179,-0.4125 -8.35758,-0.75 -18.53258,-0.75 h -18.5 v 167.5 167.5 h -41 -41 z m 403.2168,254.53642 c -51.2502,-5.89168 -92.0956,-45.10108 -99.7273,-95.73294 -1.2647,-8.39046 -1.4741,-37.18905 -1.4527,-199.80348 0.015,-116.79574 0.3987,-192.88964 0.9951,-197.500003 3.1691,-24.498806 13.9112,-46.897287 30.8548,-64.335528 13.7584,-14.160052 27.6761,-22.926084 46.1133,-29.0443745 14.9228,-4.95205228 23.563,-5.9409906 46.7604,-5.35207782 17.2971,0.43912275 20.8922,0.82451176 29.0544,3.11457352 13.2589,3.720056 22.4208,7.7623917 32.786,14.4655188 26.5459,17.167059 44.7565,44.61321 50.527,76.151888 2.0304,11.097563 2.0377,392.842073 0.01,404.000003 -2.0901,11.48791 -5.8524,22.54205 -11.2316,33 -15.8761,30.86526 -44.8275,52.69239 -78.9325,59.50901 -9.0009,1.79904 -35.6525,2.68874 -45.7546,1.52741 z m 37.0028,-84.7433 c 6.5237,-2.97706 13.2073,-10.14546 15.7194,-16.85966 2.0545,-5.49119 2.061,-6.09972 2.061,-193.78947 0,-165.65543 -0.1829,-188.89685 -1.5219,-193.40591 -2.0188,-6.798052 -9.6259,-15.15557 -16.708,-18.356287 -4.7238,-2.134877 -6.6696,-2.380058 -18.7701,-2.365031 -12.2734,0.01524 -13.9505,0.238566 -18.4578,2.457809 -5.9716,2.940209 -11.642,8.411882 -14.7507,14.233935 l -2.2915,4.291494 -0.262,191.5 -0.2619,191.5 3.0539,6.20802 c 3.5506,7.21746 9.1301,12.41914 16.3943,15.28402 4.3229,1.70486 7.0039,1.9612 18.0757,1.7283 10.7958,-0.22711 13.8002,-0.63866 17.7196,-2.42722 z m 319.7804,84.62073 c -24.6775,-2.69845 -46.3543,-13.21364 -64.6375,-31.355 -18.9616,-18.81455 -30.4748,-41.21691 -34.8303,-67.77315 -0.8376,-5.10714 -8.7356,-98.1607 -17.551,-206.7857 -8.8154,-108.625 -16.2629,-198.962503 -16.5499,-200.750003 l -0.5219,-3.25 h -18.4547 -18.4547 v -41 -41 h 57 c 56.3503,0 57,0.022818 57,2.00178482 0,2.97045168 37.8641,468.74195818 38.5328,473.99821818 1.7699,13.91047 9.1367,26.06653 18.9672,31.29822 3.2922,1.75206 6.1676,2.19764 16.25,2.51809 l 12.25,0.38934 V 253.93102 -1.171803 h 41.5 41.5 v 296.500003 296.5 l -52.25,-0.13302 c -28.7375,-0.0732 -55.625,-0.50207 -59.75,-0.95313 z m 171,-295.41385 V -1.171803 h 116 116 v 41 41 h -16 c -11.2142,0 -16,0.337533 -16,1.128459 0,0.620652 17.775,112.219684 39.5,247.997844 26.5523,165.94782 39.5,249.32853 39.5,254.37154 v 7.50216 h -41 -41 v -5.36901 c 0,-11.71305 -3.9768,-28.81414 -9.9193,-42.65473 -16.6543,-38.78941 -56.1665,-67.47915 -97.3307,-70.67165 l -7.75,-0.60105 v 59.64822 59.64822 h -41 -41 z m 142.0565,-49.71322 c -13.7811,-89.31319 -25.0565,-162.927435 -25.0565,-163.587204 0,-0.887074 -4.559,-1.199579 -17.5,-1.199579 h -17.5 V 235.23843 389.64866 l 8.75,0.6535 c 25.3163,1.89079 55.537,9.69675 72.7779,18.79845 2.3961,1.2649 3.0315,1.31054 3.2786,0.23549 0.1686,-0.73342 -10.9689,-74.40793 -24.75,-163.72112 z"
       id="path9"
       inkscape:label="TXT" /></g></svg>
